<svg width="236" height="180" viewBox="0 0 236 180" fill="none" xmlns="http://www.w3.org/2000/svg">
<g filter="url(#filter0_f)">
<path d="M199 141C199 145.97 158.258 150 108 150C57.7421 150 17 145.97 17 141C17 138.256 23.4182 132.151 43 130.5C58.8868 129.161 85.4889 132 108 132C128.217 132 147.395 127.897 162.5 129C184.944 130.639 199 138.029 199 141Z" fill="#EDEDED"/>
</g>
<path fill-rule="evenodd" clip-rule="evenodd" d="M1.8 54.8002C2.7 54.2002 31.8 41.7002 66.5 26.9002C101.2 12.2002 130.5 0.100185 131.7 0.000178678C133.9 -0.0998122 233.3 41.8002 235.1 43.6002C235.6 44.1002 235.9 50.7002 235.8 58.9002L235.5 73.3002L217.9 80.9002L210.9 77.9002L203.9 75.0002L195 78.6002L186 82.3002V88.0002C186 91.3002 185.5 94.0002 184.8 94.6002C184.1 95.1002 179.1 97.4002 173.8 99.7002L164.1 103.8L156.9 100.9L149.8 97.9002L136.5 103.6L123.1 109.3L122.5 121.4L113 125.2L103.5 129.1L94.8 125L86 121V109.2L78.8 106.2L71.7 103.2L64.5 106.1L57.4 109.1L49.9 105.9C45.8 104.2 41.9 102 41.2 101.1C40.6 100.2 40 97.3002 40 94.7002C40 89.9002 39.9 89.8002 35.6 87.8002L31.2 85.9002L24.1 88.9002L17.1 91.9002L9.8 88.7002C5.8 87.0002 1.9 85.1002 1.2 84.6002C0.4 83.9002 0 79.7002 0 69.8002C0 57.7002 0.2 55.8002 1.8 54.8002ZM142.3 11.2002C142.8 10.9002 141.4 9.90018 139.2 8.90018C137.1 7.90018 134.4 6.90018 133.4 6.60018C132.3 6.30018 108 16.1002 73 30.9002C40.8 44.6002 13.9 56.1002 13.1 56.6002C12.2 57.2002 13.4 58.1002 17.4 59.8002L23 62.1002L82.2 36.9002C114.8 23.0002 141.9 11.4002 142.3 11.2002ZM102.7 45.0002C135.8 31.0002 162.8 19.4002 162.7 19.2002C162.5 19.1002 159.9 17.9002 157 16.6002L151.5 14.2002L92 39.5002C59.3 53.4002 32.6 65.1002 32.8 65.6002C32.9 66.0002 35.2 67.3002 37.8 68.5002L42.5 70.6002L102.7 45.0002ZM182 27.8002C182 27.4002 179.8 26.2002 177.1 25.0002C174.4 23.9002 171.8 22.9002 171.3 22.9002C169.7 23.0002 52 73.4002 52 74.0002C52 74.4002 54.4 75.6002 57.4 76.8002L62.7 79.0002L122.3 53.7002C155.1 39.8002 182 28.1002 182 27.8002ZM81.9 86.9002C84.4 86.9002 202 36.5002 201.2 35.8002C200.8 35.4002 198.5 34.2002 195.9 33.1002L191.4 31.1002L131.1 56.8002L70.7 82.4002L75.6 84.6002C78.3 85.9002 81.2 86.9002 81.9 86.9002ZM224.5 45.7002L218.5 42.8002C215.2 41.3002 211.8 40.0002 211 40.0002C209.3 40.0002 91 90.1002 91 90.9002C91 91.2002 93.9 92.6002 97.5 94.1002L103.9 96.7002L160.7 72.7002C191.9 59.5002 219.1 48.0002 221 47.2002L224.5 45.7002ZM230 68.9002V59.9002C230 53.3002 229.7 50.9002 228.8 50.9002C227.5 51.0002 108.2 101.4 107.4 102.2C107.1 102.4 107.1 106.7 107.2 111.7L107.5 120.8L112.3 118.7L117 116.6V110.9C117 105.7 117.2 105.1 119.8 104C120.696 103.582 124.838 101.773 130.458 99.3179C134.247 97.6626 138.709 95.7138 143.3 93.7002C166.2 83.9002 167 83.8002 167 91.0002C167 93.2002 167.4 94.9002 168 94.9002C168.5 94.9002 171.4 93.8002 174.5 92.5002L180 90.0002V84.6002C180 81.4002 180.5 78.7002 181.3 78.1002C184 75.9002 216.3 62.8002 218.3 63.1002C220.1 63.3002 220.6 64.2002 220.8 67.6002C221.2 72.4002 221.3 72.5002 226.4 70.4002L230 68.9002ZM99.8 102.2C99.1 101.6 78.2 92.6002 53.5 82.1002C28.7 71.5002 7.9 62.9002 7.2 62.9002C5.5 62.9002 5.5 79.3002 7.3 80.7002C7.9 81.3002 9.7 82.0002 11.2 82.4002C13.8 83.1002 13.9 82.9002 14.2 78.7002C14.5 74.9002 14.8 74.4002 17 74.2002C18.4 74.1002 25.3 76.5002 32.5 79.7002L45.5 85.4002L45.8 89.4002C46.2 96.4002 46.9 98.0002 50.3 99.4002L53.5 100.7L54 96.7002C54.8 89.9002 56 89.9002 72.6 96.9002C86.5437 102.768 90.4811 104.251 91.5825 106.91C92.0767 108.103 92 109.532 92 111.7C92 114.99 92 116.414 92.6937 117.286C93.2229 117.951 94.1557 118.294 95.8 118.9L100.3 120.7C101.6 121.3 101.1 103.2 99.8 102.2ZM58.5 96.7778L67 100.5L58.5 103.5V96.7778ZM19 80L26.5 83.5L19 86.5V80ZM154.5 95L162 91.5V98.5L154.5 95ZM216.5 69L209 72.5L216.5 76.5V69Z" fill="black"/>
<path d="M45.7202 174.981V180H43.373V166.492H48.5405C50.0496 166.492 51.2464 166.885 52.1309 167.67C53.0215 168.456 53.4668 169.495 53.4668 170.788C53.4668 172.111 53.0308 173.141 52.1587 173.877C51.2928 174.613 50.0775 174.981 48.5127 174.981H45.7202ZM45.7202 173.098H48.5405C49.3755 173.098 50.0125 172.903 50.4517 172.513C50.8908 172.117 51.1104 171.548 51.1104 170.806C51.1104 170.076 50.8877 169.495 50.4424 169.062C49.9971 168.623 49.3848 168.397 48.6055 168.385H45.7202V173.098Z" fill="black"/>
<path d="M61.436 176.855H56.2036L55.1089 180H52.6689L57.7715 166.492H59.8774L64.9893 180H62.54L61.436 176.855ZM56.8623 174.962H60.7773L58.8198 169.359L56.8623 174.962Z" fill="black"/>
<path d="M68.8765 178.126H75.0088V180H66.5293V166.492H68.8765V178.126Z" fill="black"/>
<path d="M79.1558 178.126H85.2881V180H76.8086V166.492H79.1558V178.126Z" fill="black"/>
<path d="M94.9829 173.97H89.4351V178.126H95.9199V180H87.0879V166.492H95.855V168.385H89.4351V172.114H94.9829V173.97Z" fill="black"/>
<path d="M107.776 168.385H103.564V180H101.236V168.385H97.061V166.492H107.776V168.385Z" fill="black"/>
<path d="M112.601 166.492L116.497 176.846L120.384 166.492H123.418V180H121.08V175.547L121.312 169.591L117.323 180H115.644L111.664 169.6L111.896 175.547V180H109.558V166.492H112.601Z" fill="black"/>
<path d="M133.929 176.855H128.697L127.602 180H125.162L130.265 166.492H132.371L137.482 180H135.033L133.929 176.855ZM129.355 174.962H133.271L131.313 169.359L129.355 174.962Z" fill="black"/>
<path d="M143.986 174.795H141.37V180H139.022V166.492H143.772C145.331 166.492 146.534 166.842 147.381 167.541C148.229 168.239 148.652 169.251 148.652 170.574C148.652 171.477 148.433 172.235 147.994 172.847C147.561 173.453 146.955 173.92 146.175 174.248L149.209 179.879V180H146.695L143.986 174.795ZM141.37 172.912H143.782C144.573 172.912 145.192 172.714 145.637 172.318C146.083 171.916 146.305 171.369 146.305 170.676C146.305 169.953 146.098 169.393 145.684 168.997C145.275 168.601 144.663 168.397 143.847 168.385H141.37V172.912Z" fill="black"/>
<path d="M154.757 174.165L153.226 175.788V180H150.879V166.492H153.226V172.829L154.525 171.224L158.477 166.492H161.316L156.297 172.476L161.604 180H158.82L154.757 174.165Z" fill="black"/>
<path d="M170.76 173.97H165.212V178.126H171.697V180H162.865V166.492H171.632V168.385H165.212V172.114H170.76V173.97Z" fill="black"/>
<path d="M183.554 168.385H179.342V180H177.013V168.385H172.838V166.492H183.554V168.385Z" fill="black"/>
<defs>
<filter id="filter0_f" x="13" y="124.812" width="190" height="29.1882" filterUnits="userSpaceOnUse" color-interpolation-filters="sRGB">
<feFlood flood-opacity="0" result="BackgroundImageFix"/>
<feBlend mode="normal" in="SourceGraphic" in2="BackgroundImageFix" result="shape"/>
<feGaussianBlur stdDeviation="2" result="effect1_foregroundBlur"/>
</filter>
</defs>
</svg>
